<mxfile host="app.diagrams.net" agent="Mozilla/5.0 (Macintosh; Intel Mac OS X 10_15_7) AppleWebKit/537.36 (KHTML, like Gecko) Chrome/132.0.0.0 Safari/537.36" version="26.1.3">
  <diagram name="Page-1" id="CMOB_vik5qc2liK1SrFR">
    <mxGraphModel dx="1199" dy="696" grid="1" gridSize="10" guides="1" tooltips="1" connect="1" arrows="1" fold="1" page="1" pageScale="1" pageWidth="827" pageHeight="1169" math="0" shadow="0">
      <root>
        <mxCell id="0" />
        <mxCell id="1" parent="0" />
        <mxCell id="C67dEC7ghuMqfPnZ8_hW-2" value="" style="ellipse;html=1;shape=startState;fillColor=#000000;strokeColor=#000000;" parent="1" vertex="1">
          <mxGeometry x="265" y="140" width="30" height="30" as="geometry" />
        </mxCell>
        <mxCell id="C67dEC7ghuMqfPnZ8_hW-17" value="" style="ellipse;html=1;shape=endState;fillColor=#000000;strokeColor=#000000;direction=east;" parent="1" vertex="1">
          <mxGeometry x="262.5" y="740" width="30" height="30" as="geometry" />
        </mxCell>
        <mxCell id="C67dEC7ghuMqfPnZ8_hW-23" value="Choose Role for your account" style="rhombus;whiteSpace=wrap;html=1;fontColor=#000000;fillColor=#FFFFFF;strokeColor=#000000;" parent="1" vertex="1">
          <mxGeometry x="225" y="310" width="110" height="100" as="geometry" />
        </mxCell>
        <mxCell id="C67dEC7ghuMqfPnZ8_hW-26" value="" style="endArrow=classicThin;endFill=1;endSize=12;html=1;rounded=0;exitX=0;exitY=0.5;exitDx=0;exitDy=0;" parent="1" source="C67dEC7ghuMqfPnZ8_hW-23" target="C67dEC7ghuMqfPnZ8_hW-30" edge="1">
          <mxGeometry width="160" relative="1" as="geometry">
            <mxPoint x="330" y="250" as="sourcePoint" />
            <mxPoint x="80" y="400" as="targetPoint" />
            <Array as="points">
              <mxPoint x="110" y="360" />
            </Array>
          </mxGeometry>
        </mxCell>
        <mxCell id="C67dEC7ghuMqfPnZ8_hW-27" value="" style="endArrow=classicThin;endFill=1;endSize=12;html=1;rounded=0;exitX=1;exitY=0.5;exitDx=0;exitDy=0;entryX=0.5;entryY=0;entryDx=0;entryDy=0;" parent="1" source="C67dEC7ghuMqfPnZ8_hW-23" target="C67dEC7ghuMqfPnZ8_hW-32" edge="1">
          <mxGeometry width="160" relative="1" as="geometry">
            <mxPoint x="330" y="250" as="sourcePoint" />
            <mxPoint x="430" y="360" as="targetPoint" />
            <Array as="points">
              <mxPoint x="440" y="360" />
            </Array>
          </mxGeometry>
        </mxCell>
        <mxCell id="C67dEC7ghuMqfPnZ8_hW-28" value="&amp;nbsp;&quot;Registered&amp;nbsp;&lt;div&gt;User&quot;&lt;/div&gt;" style="text;html=1;align=center;verticalAlign=middle;resizable=0;points=[];autosize=1;strokeColor=none;fillColor=none;" parent="1" vertex="1">
          <mxGeometry x="160" y="323" width="90" height="40" as="geometry" />
        </mxCell>
        <mxCell id="C67dEC7ghuMqfPnZ8_hW-29" value="&lt;span style=&quot;color: rgb(0, 0, 0); font-family: Helvetica; font-size: 12px; font-style: normal; font-variant-ligatures: normal; font-variant-caps: normal; font-weight: 400; letter-spacing: normal; orphans: 2; text-align: center; text-indent: 0px; text-transform: none; widows: 2; word-spacing: 0px; -webkit-text-stroke-width: 0px; white-space: nowrap; background-color: rgb(251, 251, 251); text-decoration-thickness: initial; text-decoration-style: initial; text-decoration-color: initial; float: none; display: inline !important;&quot;&gt;&quot;Venue&quot;&lt;/span&gt;" style="text;whiteSpace=wrap;html=1;" parent="1" vertex="1">
          <mxGeometry x="335" y="332" width="50" height="22" as="geometry" />
        </mxCell>
        <mxCell id="C67dEC7ghuMqfPnZ8_hW-30" value="Provide&amp;nbsp;necessary information" style="rounded=1;whiteSpace=wrap;html=1;arcSize=40;fontColor=#000000;fillColor=#FFFFFF;strokeColor=#000000;" parent="1" vertex="1">
          <mxGeometry x="50" y="400" width="120" height="40" as="geometry" />
        </mxCell>
        <mxCell id="C67dEC7ghuMqfPnZ8_hW-32" value="Provide necessary information about the venue" style="rounded=1;whiteSpace=wrap;html=1;arcSize=40;fontColor=#000000;fillColor=#FFFFFF;strokeColor=#000000;" parent="1" vertex="1">
          <mxGeometry x="375" y="400" width="130" height="50" as="geometry" />
        </mxCell>
        <mxCell id="C67dEC7ghuMqfPnZ8_hW-44" value="Select Event-type Preferences" style="rounded=1;whiteSpace=wrap;html=1;arcSize=40;fontColor=#000000;fillColor=#FFFFFF;strokeColor=#000000;" parent="1" vertex="1">
          <mxGeometry x="50" y="485" width="120" height="40" as="geometry" />
        </mxCell>
        <mxCell id="C67dEC7ghuMqfPnZ8_hW-47" value="" style="endArrow=classicThin;endFill=1;endSize=12;html=1;rounded=0;exitX=0.5;exitY=1;exitDx=0;exitDy=0;entryX=0.5;entryY=0;entryDx=0;entryDy=0;" parent="1" source="C67dEC7ghuMqfPnZ8_hW-30" target="C67dEC7ghuMqfPnZ8_hW-44" edge="1">
          <mxGeometry width="160" relative="1" as="geometry">
            <mxPoint x="330" y="510" as="sourcePoint" />
            <mxPoint x="490" y="510" as="targetPoint" />
          </mxGeometry>
        </mxCell>
        <mxCell id="C67dEC7ghuMqfPnZ8_hW-48" value="System Creates a new profile with role &quot;registered user&quot;" style="rounded=1;whiteSpace=wrap;html=1;arcSize=40;fontColor=#000000;fillColor=#FFFFFF;strokeColor=#000000;" parent="1" vertex="1">
          <mxGeometry x="40" y="560" width="140" height="45" as="geometry" />
        </mxCell>
        <mxCell id="RZCcfdKKQkRq0UV_-6qu-5" value="" style="endArrow=classicThin;endFill=1;endSize=12;html=1;rounded=0;exitX=0.5;exitY=1;exitDx=0;exitDy=0;entryX=0;entryY=0.5;entryDx=0;entryDy=0;" parent="1" source="C67dEC7ghuMqfPnZ8_hW-48" target="RZCcfdKKQkRq0UV_-6qu-11" edge="1">
          <mxGeometry width="160" relative="1" as="geometry">
            <mxPoint x="330" y="450" as="sourcePoint" />
            <mxPoint x="110" y="640" as="targetPoint" />
            <Array as="points">
              <mxPoint x="110" y="660" />
            </Array>
          </mxGeometry>
        </mxCell>
        <mxCell id="RZCcfdKKQkRq0UV_-6qu-6" value="System verifies information provided" style="rounded=1;whiteSpace=wrap;html=1;arcSize=40;fontColor=#000000;fillColor=#FFFFFF;strokeColor=#000000;" parent="1" vertex="1">
          <mxGeometry x="380" y="485" width="120" height="40" as="geometry" />
        </mxCell>
        <mxCell id="RZCcfdKKQkRq0UV_-6qu-9" value="" style="endArrow=classicThin;endFill=1;endSize=12;html=1;rounded=0;exitX=0.5;exitY=1;exitDx=0;exitDy=0;entryX=0.5;entryY=0;entryDx=0;entryDy=0;" parent="1" source="C67dEC7ghuMqfPnZ8_hW-32" target="RZCcfdKKQkRq0UV_-6qu-6" edge="1">
          <mxGeometry width="160" relative="1" as="geometry">
            <mxPoint x="340" y="380" as="sourcePoint" />
            <mxPoint x="500" y="380" as="targetPoint" />
          </mxGeometry>
        </mxCell>
        <mxCell id="RZCcfdKKQkRq0UV_-6qu-10" value="" style="endArrow=classicThin;endFill=1;endSize=12;html=1;rounded=0;exitX=0.5;exitY=1;exitDx=0;exitDy=0;entryX=1;entryY=0.5;entryDx=0;entryDy=0;" parent="1" source="f614vSZYmoWYIJuNfRB--9" target="RZCcfdKKQkRq0UV_-6qu-11" edge="1">
          <mxGeometry width="160" relative="1" as="geometry">
            <mxPoint x="440" y="692.5" as="sourcePoint" />
            <mxPoint x="500" y="380" as="targetPoint" />
            <Array as="points">
              <mxPoint x="440" y="660" />
            </Array>
          </mxGeometry>
        </mxCell>
        <mxCell id="RZCcfdKKQkRq0UV_-6qu-11" value="User is redirected to main page" style="rounded=1;whiteSpace=wrap;html=1;arcSize=40;fontColor=#000000;fillColor=#FFFFFF;strokeColor=#000000;" parent="1" vertex="1">
          <mxGeometry x="215" y="640" width="125" height="40" as="geometry" />
        </mxCell>
        <mxCell id="RZCcfdKKQkRq0UV_-6qu-15" value="" style="endArrow=open;endFill=1;endSize=12;html=1;rounded=0;exitX=0.5;exitY=1;exitDx=0;exitDy=0;entryX=0.5;entryY=0;entryDx=0;entryDy=0;" parent="1" source="RZCcfdKKQkRq0UV_-6qu-11" target="C67dEC7ghuMqfPnZ8_hW-17" edge="1">
          <mxGeometry width="160" relative="1" as="geometry">
            <mxPoint x="342.5" y="650" as="sourcePoint" />
            <mxPoint x="502.5" y="650" as="targetPoint" />
          </mxGeometry>
        </mxCell>
        <mxCell id="f614vSZYmoWYIJuNfRB--1" value="Click on &quot;Create an account&quot;" style="rounded=1;whiteSpace=wrap;html=1;arcSize=40;fontColor=#000000;fillColor=#FFFFFF;strokeColor=#000000;" parent="1" vertex="1">
          <mxGeometry x="220" y="210" width="120" height="40" as="geometry" />
        </mxCell>
        <mxCell id="f614vSZYmoWYIJuNfRB--6" value="" style="endArrow=classicThin;endFill=1;endSize=12;html=1;rounded=0;exitX=0.5;exitY=1;exitDx=0;exitDy=0;exitPerimeter=0;entryX=0.5;entryY=0;entryDx=0;entryDy=0;" parent="1" source="f614vSZYmoWYIJuNfRB--1" target="C67dEC7ghuMqfPnZ8_hW-23" edge="1">
          <mxGeometry width="160" relative="1" as="geometry">
            <mxPoint x="240" y="380" as="sourcePoint" />
            <mxPoint x="400" y="380" as="targetPoint" />
          </mxGeometry>
        </mxCell>
        <mxCell id="f614vSZYmoWYIJuNfRB--7" value="" style="endArrow=classicThin;endFill=1;endSize=12;html=1;rounded=0;exitX=0.5;exitY=1;exitDx=0;exitDy=0;entryX=0.5;entryY=0;entryDx=0;entryDy=0;" parent="1" source="C67dEC7ghuMqfPnZ8_hW-2" target="f614vSZYmoWYIJuNfRB--1" edge="1">
          <mxGeometry width="160" relative="1" as="geometry">
            <mxPoint x="240" y="380" as="sourcePoint" />
            <mxPoint x="400" y="380" as="targetPoint" />
          </mxGeometry>
        </mxCell>
        <mxCell id="f614vSZYmoWYIJuNfRB--8" value="" style="endArrow=classicThin;endFill=1;endSize=12;html=1;rounded=0;exitX=0.5;exitY=1;exitDx=0;exitDy=0;entryX=0.5;entryY=0;entryDx=0;entryDy=0;" parent="1" source="C67dEC7ghuMqfPnZ8_hW-44" target="C67dEC7ghuMqfPnZ8_hW-48" edge="1">
          <mxGeometry width="160" relative="1" as="geometry">
            <mxPoint x="220" y="520" as="sourcePoint" />
            <mxPoint x="380" y="520" as="targetPoint" />
          </mxGeometry>
        </mxCell>
        <mxCell id="f614vSZYmoWYIJuNfRB--9" value="System Creates a new profile with role &quot;venue&quot;" style="rounded=1;whiteSpace=wrap;html=1;arcSize=40;fontColor=#000000;fillColor=#FFFFFF;strokeColor=#000000;" parent="1" vertex="1">
          <mxGeometry x="370" y="560" width="140" height="45" as="geometry" />
        </mxCell>
        <mxCell id="f614vSZYmoWYIJuNfRB--10" value="" style="endArrow=classicThin;endFill=1;endSize=12;html=1;rounded=0;exitX=0.5;exitY=1;exitDx=0;exitDy=0;entryX=0.5;entryY=0;entryDx=0;entryDy=0;" parent="1" source="RZCcfdKKQkRq0UV_-6qu-6" target="f614vSZYmoWYIJuNfRB--9" edge="1">
          <mxGeometry width="160" relative="1" as="geometry">
            <mxPoint x="220" y="520" as="sourcePoint" />
            <mxPoint x="380" y="520" as="targetPoint" />
          </mxGeometry>
        </mxCell>
      </root>
    </mxGraphModel>
  </diagram>
</mxfile>
